<svg width="20" height="24" viewBox="0 0 20 24" fill="none" xmlns="http://www.w3.org/2000/svg">
<path d="M20 18.5C20 20 18.5 20 18 20H2C1.5 20 0 20 0 18.5C0 17.7356 0.51938 17.1011 1.09496 16.3978C1.64886 15.7211 2.2548 14.9808 2.5 14C2.75 13 3 11.75 3.25 10.5C3.5 9.25 3.75 8 4 7C4.5 5 6 3.5 8 3C8.8523 2.78693 8.61498 2.21064 8.3715 1.61941C8.04363 0.82326 7.7046 0 10 0C12.2954 0 11.9564 0.82326 11.6285 1.61941C11.385 2.21064 11.1477 2.78693 12 3C12.1257 3.03144 12.2495 3.06682 12.3712 3.10604C12.1319 3.69019 12 4.32969 12 5C12 7.64289 14.0505 9.80686 16.6474 9.98776C16.6816 10.1581 16.7158 10.329 16.75 10.5C17 11.75 17.25 13 17.5 14C17.7452 14.9808 18.3511 15.7211 18.905 16.3978C19.4806 17.1011 20 17.7356 20 18.5Z" fill="#0077FF"/>
<path d="M7 21C7 22.6569 8.34315 24 10 24C11.6569 24 13 22.6569 13 21H7Z" fill="#0077FF"/>
</svg>
