<svg width="23" height="23" viewBox="0 0 23 23" fill="none" xmlns="http://www.w3.org/2000/svg">
<path d="M19.2192 0.27813L19.1611 0.408195C18.5873 1.6957 17.6957 2.58736 16.4081 3.16113L16.4037 3.16311C16.2302 3.2405 16.143 3.27932 16.124 3.29241C15.9587 3.40646 15.9587 3.59353 16.124 3.70757C16.1432 3.72079 16.2316 3.76015 16.4081 3.83886C17.6957 4.41262 18.5873 5.30428 19.1611 6.59179C19.2397 6.76842 19.2792 6.85674 19.2924 6.87591C19.4064 7.04134 19.5934 7.04134 19.7075 6.87591C19.7206 6.85674 19.7602 6.76842 19.8388 6.59179C20.4125 5.30428 21.3041 4.41262 22.5917 3.83886L22.7214 3.78097C22.8129 3.73989 22.862 3.71703 22.8759 3.70757C23.0412 3.59353 23.0412 3.40646 22.8759 3.29241C22.8566 3.2792 22.7682 3.23983 22.5917 3.16113C21.3041 2.58736 20.4125 1.6957 19.8388 0.408195C19.7602 0.23156 19.7206 0.143242 19.7075 0.124077C19.5934 -0.0413589 19.4064 -0.0413589 19.2924 0.124077C19.2829 0.137779 19.2599 0.18679 19.2192 0.27813Z" fill="url(#paint0_linear_14_477)"/>
<path d="M10.3476 1.38995C10.3061 1.45022 10.1823 1.72781 9.935 2.28295C8.13177 6.3294 5.32928 9.13174 1.2829 10.935C0.727722 11.1824 0.450134 11.3061 0.389832 11.3476C-0.129944 11.706 -0.129944 12.294 0.389832 12.6524C0.450134 12.6939 0.727722 12.8176 1.2829 13.065C5.32928 14.8682 8.13177 17.6706 9.935 21.717C10.0651 22.0091 10.1611 22.2244 10.2287 22.3715C10.2897 22.5041 10.3278 22.5815 10.3476 22.61C10.706 23.13 11.2939 23.13 11.6523 22.61C11.6745 22.5777 11.7204 22.4829 11.7963 22.3164C11.862 22.1723 11.9501 21.9745 12.0649 21.717C13.8681 17.6706 16.6706 14.8682 20.717 13.065C21.2722 12.8176 21.5497 12.6939 21.61 12.6524C22.1298 12.294 22.1298 11.706 21.61 11.3476C21.5497 11.3061 21.2722 11.1824 20.717 10.935C16.6706 9.13174 13.8681 6.3294 12.0649 2.28295C11.9223 1.96291 11.8207 1.73513 11.7524 1.58804C11.7023 1.47997 11.6699 1.41546 11.6523 1.38995C11.2939 0.870018 10.706 0.870018 10.3476 1.38995Z" fill="url(#paint1_linear_14_477)"/>
<defs>
<linearGradient id="paint0_linear_14_477" x1="21" y1="2" x2="5.09924" y2="15.9751" gradientUnits="userSpaceOnUse">
<stop stop-color="#FF00EE"/>
<stop offset="1" stop-color="#0077FF"/>
</linearGradient>
<linearGradient id="paint1_linear_14_477" x1="21" y1="2" x2="5.09924" y2="15.9751" gradientUnits="userSpaceOnUse">
<stop stop-color="#FF00EE"/>
<stop offset="1" stop-color="#0077FF"/>
</linearGradient>
</defs>
</svg>
